<?xml version="1.0" encoding="utf-8"?>
<!-- Generator: Adobe Illustrator 19.2.0, SVG Export Plug-In . SVG Version: 6.00 Build 0)  -->
<svg version="1.1" id="Layer_1" xmlns="http://www.w3.org/2000/svg" xmlns:xlink="http://www.w3.org/1999/xlink" x="0px" y="0px"
	 viewBox="0 0 135.2 24.3" enable-background="new 0 0 135.2 24.3" xml:space="preserve">
<g>
	<path fill="#777373" d="M79.8,21.2L89.6,8h-9.4V6.1h12.3v1.3l-9.8,13.2H93v1.9H79.8V21.2z"/>
	<path fill="#777373" d="M107.8,19.4c-0.8,1.3-1.9,2.2-3.1,2.7s-2.6,0.8-4,0.8c-1.3,0-2.4-0.2-3.4-0.6s-1.9-1-2.6-1.8
		s-1.3-1.7-1.7-2.7c-0.4-1.1-0.6-2.2-0.6-3.5c0-1.2,0.2-2.4,0.6-3.4s1-1.9,1.7-2.7s1.6-1.4,2.6-1.8s2.1-0.7,3.3-0.7
		c1.3,0,2.4,0.2,3.3,0.7c1,0.4,1.8,1,2.4,1.7c0.7,0.7,1.1,1.5,1.5,2.5s0.5,1.9,0.5,2.8v1.5H94.5c0,0.5,0.1,1,0.3,1.7
		c0.2,0.7,0.5,1.4,1,2c0.5,0.7,1.1,1.2,1.9,1.7s1.8,0.7,3.1,0.7c1.1,0,2.1-0.3,3.2-0.8c1-0.5,1.8-1.2,2.3-2.1L107.8,19.4z
		 M106.1,12.9c0-0.7-0.1-1.4-0.4-2.1c-0.3-0.6-0.7-1.2-1.2-1.7s-1.1-0.9-1.8-1.2c-0.7-0.3-1.4-0.4-2.2-0.4c-1.2,0-2.1,0.2-2.9,0.7
		s-1.4,1-1.8,1.6c-0.5,0.6-0.8,1.2-1,1.8s-0.3,1-0.3,1.2L106.1,12.9L106.1,12.9z"/>
	<path fill="#777373" d="M110,10.7c0-0.3,0-0.7,0-1.1s0-0.9-0.1-1.3c0-0.4,0-0.9-0.1-1.3c0-0.4,0-0.7,0-0.9h2.1c0,0.6,0,1.2,0.1,1.8
		s0,0.9,0.1,1.1c0.5-1,1.2-1.8,2.1-2.4s1.9-0.9,3.1-0.9c0.2,0,0.4,0,0.6,0.1s0.4,0.1,0.6,0.1L118.3,8c-0.3-0.1-0.6-0.1-0.8-0.1
		c-0.9,0-1.7,0.1-2.4,0.4s-1.2,0.7-1.7,1.2c-0.4,0.5-0.8,1.1-1,1.8s-0.3,1.5-0.3,2.3v9H110V10.7z"/>
	<path fill="#777373" d="M118,14.3c0-1.3,0.2-2.4,0.6-3.5s1-2,1.8-2.7c0.8-0.8,1.7-1.4,2.7-1.8c1.1-0.4,2.2-0.6,3.5-0.6
		s2.4,0.2,3.5,0.6c1.1,0.4,2,1,2.7,1.8c0.8,0.8,1.4,1.7,1.8,2.7c0.4,1.1,0.6,2.2,0.6,3.5s-0.2,2.4-0.6,3.5s-1,2-1.8,2.7
		c-0.8,0.8-1.7,1.4-2.7,1.8s-2.2,0.6-3.5,0.6s-2.4-0.2-3.5-0.6s-2-1-2.7-1.8c-0.8-0.8-1.4-1.7-1.8-2.7S118,15.6,118,14.3z
		 M120.1,14.3c0,0.9,0.1,1.8,0.4,2.6s0.7,1.5,1.3,2.1c0.6,0.6,1.3,1.1,2.1,1.4c0.8,0.4,1.7,0.5,2.7,0.5s1.9-0.2,2.7-0.5
		c0.8-0.4,1.5-0.8,2.1-1.4s1-1.3,1.3-2.1c0.3-0.8,0.4-1.7,0.4-2.6s-0.1-1.8-0.4-2.6c-0.3-0.8-0.7-1.5-1.3-2.1s-1.3-1.1-2.1-1.4
		c-0.8-0.4-1.7-0.5-2.7-0.5s-1.9,0.2-2.7,0.5c-0.8,0.4-1.5,0.8-2.1,1.4c-0.6,0.6-1,1.3-1.3,2.1C120.3,12.5,120.1,13.4,120.1,14.3z"
		/>
</g>
</svg>
