<?xml version="1.0" encoding="utf-8"?>
<!-- Generator: Adobe Illustrator 19.2.0, SVG Export Plug-In . SVG Version: 6.00 Build 0)  -->
<svg version="1.1" id="Layer_1" xmlns="http://www.w3.org/2000/svg" xmlns:xlink="http://www.w3.org/1999/xlink" x="0px" y="0px"
	 viewBox="0 0 135.2 24.3" enable-background="new 0 0 135.2 24.3" xml:space="preserve">
<g>
	<g>
		<defs>
			<polyline id="SVGID_1_" points="0,24.3 0,5.2 77.8,5.2 77.8,24.3 			"/>
		</defs>
		<clipPath id="SVGID_2_">
			<use xlink:href="#SVGID_1_"  overflow="visible"/>
		</clipPath>
		<g clip-path="url(#SVGID_2_)">
			<path fill="#FFFFFF" d="M3,22.5v-16h7.7c3,0,5.6,1.4,5.6,4.2c0,2-1.7,3.2-3.5,3.5l0,0c2.1,0.3,3.9,1.6,3.9,3.9
				c0,4.7-6,4.4-6.1,4.4 M7.4,12.8h2.3c1.2,0,2-0.5,2-1.7c0-0.9-0.8-1.6-1.8-1.6H7.4V12.8z M10,19.4c1.1,0,1.9-0.7,1.9-1.7
				c0-0.9-0.6-1.7-1.6-1.8H7.4v3.5H10z"/>
		</g>
	</g>
	<g>
		<defs>
			<polyline id="SVGID_3_" points="0,24.3 0,5.2 77.8,5.2 77.8,24.3 			"/>
		</defs>
		<clipPath id="SVGID_4_">
			<use xlink:href="#SVGID_3_"  overflow="visible"/>
		</clipPath>
		<g clip-path="url(#SVGID_4_)">
			<path fill="#FFFFFF" d="M16.3,22.5l6.3-16H28l6.4,16h-5l-1.1-3.1h-6.5l-1,3.1 M27.2,16.3l-2-6.7h-0.1l-2.2,6.7H27.2z"/>
		</g>
	</g>
	<g>
		<defs>
			<polyline id="SVGID_5_" points="0,24.3 0,5.2 77.8,5.2 77.8,24.3 			"/>
		</defs>
		<clipPath id="SVGID_6_">
			<use xlink:href="#SVGID_5_"  overflow="visible"/>
		</clipPath>
		<g clip-path="url(#SVGID_6_)">
			<polyline fill="#FFFFFF" points="44.7,6.5 50,6.5 44.4,13.5 50.4,22.5 44.9,22.5 39.6,14 39.6,14 39.6,22.5 35.1,22.5 35.1,6.5 
				39.6,6.5 39.6,13.5 39.6,13.5 			"/>
		</g>
	</g>
	<g>
		<defs>
			<polyline id="SVGID_7_" points="0,24.3 0,5.2 77.8,5.2 77.8,24.3 			"/>
		</defs>
		<clipPath id="SVGID_8_">
			<use xlink:href="#SVGID_7_"  overflow="visible"/>
		</clipPath>
		<g clip-path="url(#SVGID_8_)">
			<polyline fill="#FFFFFF" points="51,22.5 51,6.5 63.3,6.5 63.3,9.6 55.5,9.6 55.5,12.9 62.6,12.9 62.6,16 55.5,16 55.5,19.4 
				63.3,19.4 63.3,22.5 			"/>
		</g>
	</g>
	<g>
		<defs>
			<polyline id="SVGID_9_" points="0,24.3 0,5.2 77.8,5.2 77.8,24.3 			"/>
		</defs>
		<clipPath id="SVGID_10_">
			<use xlink:href="#SVGID_9_"  overflow="visible"/>
		</clipPath>
		<g clip-path="url(#SVGID_10_)">
			<path fill="#FFFFFF" d="M68.6,22.5h-4.4v-16h7.4c2.7,0,6.2,0.7,6.2,4.1c0,2.4-1.8,3.7-4.1,3.9v0.1c2.8,0.1,3.4,1.5,3.7,4
				c0.1,1.3,0.4,2.6,0.7,3.9h-4.8c-0.2-1.1-0.4-2.3-0.5-3.4c-0.2-1.9-0.3-2.7-2.5-2.7h-1.7 M70.3,13.3c1.4,0,2.8-0.2,2.8-1.8
				s-1.4-1.8-2.8-1.8h-1.7v3.7L70.3,13.3L70.3,13.3z"/>
		</g>
	</g>
</g>
</svg>
