<?xml version="1.0" encoding="utf-8"?>
<!-- Generator: Adobe Illustrator 16.0.4, SVG Export Plug-In . SVG Version: 6.00 Build 0)  -->
<!DOCTYPE svg PUBLIC "-//W3C//DTD SVG 1.1//EN" "http://www.w3.org/Graphics/SVG/1.1/DTD/svg11.dtd">
<svg version="1.1" id="Layer_1" xmlns="http://www.w3.org/2000/svg" xmlns:xlink="http://www.w3.org/1999/xlink" x="0px" y="0px"
	 width="530.94px" height="54.144px" viewBox="0 0 530.94 54.144" enable-background="new 0 0 530.94 54.144" xml:space="preserve">
<path fill="#FFFFFF" d="M95.809,53.064V1.08h24.912c9.792,0.071,18,4.464,18,13.608c0,6.408-5.4,10.296-11.232,11.375v0.145
	c6.912,0.936,12.528,5.328,12.528,12.744c0,15.119-19.296,14.111-19.8,14.111H95.809z M110.208,21.744l7.344-0.071
	c3.888,0,6.408-1.513,6.408-5.473c0-2.952-2.52-5.04-5.904-5.04h-7.848V21.744z M118.632,42.984c3.6,0,6.264-2.16,6.264-5.398
	c0-2.881-2.016-5.617-5.256-5.832h-9.432v11.23H118.632z"/>
<path fill="#FFFFFF" d="M139.82,53.064L160.34,1.08h17.568l20.521,51.984h-16.272l-3.456-10.15h-21.096l-3.384,10.15H139.82z
	 M175.172,32.833l-6.624-21.602h-0.216l-7.056,21.602H175.172z"/>
<path fill="#FFFFFF" d="M232.074,1.08h17.063l-17.928,22.896l19.368,29.088h-17.856l-17.136-27.648h-0.144v27.648h-14.4V1.08h14.4
	v22.824h0.144L232.074,1.08z"/>
<path fill="#FFFFFF" d="M253.615,53.064V1.08h39.601v10.08h-25.2v10.728H291.2v10.081h-23.185v11.016h25.2v10.08H253.615z"/>
<path fill="#FFFFFF" d="M311.027,53.064h-14.4V1.08h24.049c8.784,0,20.16,2.376,20.16,13.392c0,7.776-5.977,11.881-13.248,12.745
	v0.289c9.216,0.215,10.943,4.895,11.88,12.959c0.359,4.32,1.151,8.424,2.376,12.6h-15.624c-0.792-3.6-1.225-7.344-1.584-11.016
	c-0.576-6.264-0.864-8.855-8.208-8.855h-5.4V53.064z M316.643,23.112c4.607,0,9.072-0.648,9.072-5.977s-4.465-5.976-9.072-5.976
	h-5.616v11.952H316.643z"/>
<path fill="#B3B3B3" d="M380.232,13.248c-0.864-6.336-6.336-8.928-12.24-8.928c-13.32,0-17.353,12.096-17.353,22.751
	c0,10.656,4.032,22.752,17.353,22.752c5.76,0,11.521-2.879,12.816-9.359h5.04c-1.513,8.713-9.504,13.68-17.856,13.68
	c-15.769,0-22.393-12.672-22.393-27.072C345.599,12.816,352.295,0,367.992,0c8.496,0,16.561,3.888,17.28,13.248H380.232z"/>
<path fill="#B3B3B3" d="M410.513,54.144c-14.903,0-23.184-10.871-23.184-27.072c0-16.2,8.28-27.072,23.184-27.072
	c14.904,0,23.185,10.872,23.185,27.072C433.698,43.273,425.417,54.144,410.513,54.144z M410.513,49.824
	c12.961,0,18.145-11.375,18.145-22.752c0-11.375-5.184-22.751-18.145-22.751c-12.96,0-18.144,11.376-18.144,22.751
	C392.37,38.449,397.553,49.824,410.513,49.824z"/>
<path fill="#B3B3B3" d="M442.89,53.064h-4.68V1.08h16.992c4.536,0,8.28,0.288,12.24,2.735c3.6,2.16,5.328,5.904,5.328,10.873
	c0,5.615-3.96,9.648-10.009,11.161v0.143c6.624,1.08,8.064,5.545,8.713,11.594c0.936,8.424,0.647,12.311,2.735,15.479h-5.399
	c-1.225-3.455-1.513-7.127-1.801-10.799c-1.079-11.881-1.8-13.969-11.231-13.969H442.89V53.064z M452.899,23.976
	c6.624,0,14.832-0.432,14.832-9.287c0-10.008-9.36-9.289-14.328-9.289H442.89v18.576H452.899z"/>
<path fill="#B3B3B3" d="M479.292,53.064V1.08h13.032c10.008-0.216,21.24,2.304,21.24,14.688c0,12.383-11.232,14.905-21.24,14.688
	h-8.353v22.607H479.292z M483.971,26.136h11.376c6.984,0,13.177-2.232,13.177-10.368c0-8.137-6.192-10.369-13.177-10.369h-11.376
	V26.136z"/>
<polygon fill="#DC291E" points="59.449,27.886 42.9,44.437 26.35,27.886 "/>
<path fill="#FFFFFF" d="M83.408,21.83l-0.439-0.439L64.326,2.748H42.9v0.001l13.214,13.214v0.001l10.294,10.293
	c0.84,0.84,0.84,2.215,0,3.055L47.856,47.865l-3.43,3.43L42.9,52.822v0.203h21.426l18.818-18.818l0.104-0.102
	c1.576-1.604,2.551-3.801,2.551-6.227C85.799,25.539,84.887,23.417,83.408,21.83z"/>
<path fill="#DC291E" d="M42.9,2.748L42.9,2.748L42.9,2.748L42.9,2.748z M28.631,17.016L42.899,2.748H21.473L2.831,21.391
	l-0.44,0.439C0.912,23.417,0,25.539,0,27.878c0,2.426,0.975,4.623,2.553,6.227l0.102,0.102l18.818,18.818H42.9v-0.203h-0.001
	l-1.527-1.525c0-0.002,0-0.002,0-0.002L19.39,29.312c-0.84-0.84-0.84-2.215,0-3.055L28.631,17.016z"/>
<g>
	<path fill="#B3B3B3" d="M518.18,9.163V2.466h-2.506V1.07h6.566v1.396h-2.426v6.697H518.18z M522.846,9.163V1.07h2.572l1.475,5.571
		l1.494-5.571h2.553v8.093h-1.555V2.704l-1.764,6.459h-1.48l-1.738-6.459v6.459H522.846z"/>
</g>
</svg>
