<?xml version="1.0" encoding="utf-8"?>
<!-- Generator: Adobe Illustrator 19.2.0, SVG Export Plug-In . SVG Version: 6.00 Build 0)  -->
<svg version="1.1" id="Layer_1" xmlns="http://www.w3.org/2000/svg" xmlns:xlink="http://www.w3.org/1999/xlink" x="0px" y="0px"
	 viewBox="0 0 140.5 140.5" enable-background="new 0 0 140.5 140.5" xml:space="preserve">
<path fill="#A0BE3B" d="M97.2,56.1c0-2.6-2.2-4.8-5-4.8H55.6c-2.7,0-5,2.1-5,4.8v5.3h46.6"/>
<rect x="50.5" y="62.6" fill="#A0BE3B" width="18.3" height="3.6"/>
<path fill="#A0BE3B" d="M80.5,44.6c0,2.6-2.2,4.7-4.8,4.7c-2.7,0-4.8-2.1-4.8-4.7c0-2.6,2.2-4.7,4.8-4.7
	C78.3,39.9,80.5,42,80.5,44.6"/>
<path fill="#A0BE3B" d="M95.2,44.6c0,2.6-2.2,4.7-4.8,4.7c-2.7,0-4.8-2.1-4.8-4.7c0-2.6,2.2-4.7,4.8-4.7C93,39.9,95.2,42,95.2,44.6"
	/>
<path fill="#A0BE3B" d="M85.3,44.6c0,1.2-1,2.2-2.3,2.2s-2.3-1-2.3-2.2s1-2.2,2.3-2.2C84.2,42.3,85.3,43.3,85.3,44.6"/>
<path fill="#A0BE3B" d="M70.2,88.9c5.4,10.5,0.7,18.9-10.6,18.9s-16-8.5-10.6-18.9S59.2,70,59.6,70C60.1,70,64.8,78.5,70.2,88.9"/>
</svg>
