<?xml version="1.0" encoding="utf-8"?>
<!-- Generator: Adobe Illustrator 19.2.0, SVG Export Plug-In . SVG Version: 6.00 Build 0)  -->
<svg version="1.1" id="Layer_1" xmlns="http://www.w3.org/2000/svg" xmlns:xlink="http://www.w3.org/1999/xlink" x="0px" y="0px"
	 viewBox="0 0 140.5 140.5" enable-background="new 0 0 140.5 140.5" xml:space="preserve">
<path fill="#A0BE3B" d="M89.6,54l-0.3,0.6l-2.7,5.6l-6.3,1l-0.9,0.4h-0.3L72,62.2l5.4-4c-2.1-3.9-4-7.5-5.4-10.3
	c-0.4-0.8-0.8-1.5-1.1-2.2c0.5-0.8,1-1.6,1.7-2.5c1.7-2.1,4.1-4.3,6.4-4.2c1.3,0.1,2.7,1,3.9,3.1l4.7,8.5l5.5-4 M71.8,42.5
	c1.3-1.7,3-4,5-4H61.7c-0.7,0-1,0.6-1.1,0.7l-0.1,0.2l-8.4,15l9.3,6.1c0.6-1.1,1.3-2.4,2.1-3.8l5.3-9.5c0.2-0.3,0.5-1.1,1.1-2l0,0
	l0.2-0.2C70.5,44.2,71.1,43.4,71.8,42.5 M79.8,104.4l-0.6-6.9h9.5c2.3,0,3.7-0.9,4.5-2.1c1.3-2,0.6-5.2-0.3-7.8
	c-0.4-1-0.8-1.9-1.2-2.7c-0.7-0.1-1.5-0.1-2.4-0.2c-3-0.1-7-0.2-11.3-0.3l-0.6-6.8l-2.8,6.8l-0.1,0.3l-0.4,0.9l-2.5,6l3.3,5.2
	l0.3,0.6L79.8,104.4z M94,87.3c0.8,2.1,1.4,4.4,1,6.5l7.6-13.5c0-0.8-0.1-1.2-0.2-1.5l-0.1-0.2l-8.4-15.1l-9.7,5.3
	c0.6,1,1.3,2.4,2.1,3.8l5.3,9.5c0.2,0.3,0.6,1,1.1,2l0,0l0.2,0.3C93.2,85.2,93.6,86.2,94,87.3 M40.4,64.9l6.1,2.8l-4.7,8.5
	c-1.1,2.2-1.1,3.8-0.6,5c1.1,2.1,4.1,3.2,6.7,3.6c1,0.2,2,0.2,2.9,0.3c0.4-0.6,0.8-1.3,1.3-2c1.6-2.6,3.7-6.1,5.9-9.9l6,2.9
	l-4.3-5.9l-0.2-0.3L59,69.1L55.2,64l-6,0.5h-0.6L40.4,64.9z M47.5,86.1c-2.1-0.3-4.4-1.1-6-2.5L49,97.1c0.6,0.4,1.1,0.4,1.3,0.4h0.2
	h16.9l0.5-11c-1.2,0-2.7,0-4.2,0H53c-0.3,0-1.2,0-2.2,0l0,0h-0.3C49.7,86.5,48.6,86.3,47.5,86.1"/>
</svg>
